<svg id="image-not-found" xmlns="http://www.w3.org/2000/svg" width="730" height="398" viewBox="0 0 730 398">
  <g id="Rectangle_1" data-name="Rectangle 1" fill="#fff" stroke="rgba(0,46,83,0.5)" stroke-width="1">
    <rect width="730" height="398" stroke="none"/>
    <rect x="0.5" y="0.5" width="729" height="397" fill="none"/>
  </g>
  <line id="Line_2" data-name="Line 2" x2="729" y2="397" transform="translate(0.5 0.5)" fill="none" stroke="rgba(0,46,83,0.5)" stroke-width="1"/>
  <line id="Line_1" data-name="Line 1" y1="397" x2="729" transform="translate(0.5 0.5)" fill="none" stroke="rgba(0,46,83,0.5)" stroke-width="1"/>
  <g id="Group_1" data-name="Group 1" transform="translate(-173.261 -57.379)">
    <g id="Path_1" data-name="Path 1" transform="translate(0)" fill="#fff" stroke-linecap="round">
      <path d="M 532.4826049804688 393.6821899414062 C 524.598876953125 393.682373046875 516.4357299804688 392.7342834472656 507.5263977050781 390.7839660644531 C 502.9933471679688 389.79150390625 498.9884643554688 388.2992858886719 495.3994140625 386.4462585449219 C 482.2622985839844 393.3824768066406 468.07666015625 393.3818664550781 461.7442016601562 393.3819885253906 C 459.5993957519531 393.3819885253906 457.4486999511719 393.3441772460938 455.3161010742188 393.3053894042969 L 449.9992980957031 393.2388916015625 C 448.8042907714844 393.2388916015625 447.6304931640625 393.2542724609375 446.4845886230469 393.3067932128906 L 443.810791015625 393.3584899902344 C 425.2554931640625 393.358642578125 409.2286071777344 385.8175659179688 398.169921875 373.1110229492188 C 379.6290893554688 385.7298889160156 356.6372375488281 392.9608459472656 333.6958923339844 392.9617919921875 C 292.7807006835938 392.96337890625 259.635009765625 371.2808837890625 245.031005859375 334.9610900878906 C 235.423095703125 313.4610900878906 232.1327972412109 288.6859741210938 235.614501953125 262.1804809570312 C 240.9346618652344 212.5859069824219 265.2251281738281 170.1809539794922 301.3741760253906 146.6866455078125 C 307.5674438476562 128.2566070556641 322.0764770507812 122.0198287963867 328.9664001464844 120.0546798706055 C 332.8669128417969 118.9423828125 336.8156127929688 118.3786773681641 340.7043151855469 118.3786773681641 C 346.5624084472656 118.3786773681641 356.2559814453125 119.7582550048828 365.8356628417969 127.2066955566406 C 366.72802734375 127.186767578125 367.6177368164062 127.1767807006836 368.5039978027344 127.1767807006836 C 375.0892639160156 127.1767807006836 381.634033203125 127.725959777832 388.0858459472656 128.8160400390625 C 394.4646606445312 124.0022659301758 401.151123046875 121.9385833740234 406.6408081054688 121.1381759643555 C 408.8836059570312 120.8114776611328 411.084716796875 120.6519775390625 413.2428894042969 120.6519775390625 C 422.2499084472656 120.6519775390625 430.8377990722656 123.4840774536133 438.0780944824219 128.8419799804688 C 447.4039916992188 135.7434844970703 453.4518127441406 146.3419799804688 454.6707153320312 157.9199829101562 C 455.1824645996094 162.7805786132812 454.8198547363281 167.6357727050781 453.6326293945312 172.3386383056641 C 464.1945495605469 189.8929443359375 469.3606872558594 211.3661346435547 468.818359375 235.27880859375 C 469.5613708496094 235.2868041992188 470.3043212890625 235.2962799072266 471.0473022460938 235.3074798583984 C 482.6301879882812 235.4806823730469 492.2354125976562 238.2527770996094 500.4078063964844 243.7821807861328 C 501.8372192382812 244.749267578125 503.1907348632812 245.7763366699219 504.4674682617188 246.8600006103516 C 508.2568969726562 244.3677825927734 512.2600708007812 242.1375732421875 516.4647827148438 240.1927795410156 C 525.9298095703125 235.7632751464844 535.8848266601562 233.4934844970703 545.951904296875 233.4934844970703 C 547.3642578125 233.4934844970703 548.774169921875 233.5382385253906 550.182373046875 233.6276397705078 L 553.304931640625 225.9585723876953 L 563.7637329101562 200.2690734863281 C 567.5728149414062 190.9617767333984 572.8549194335938 183.1178741455078 579.4765014648438 176.9232788085938 C 588.2689819335938 168.3011779785156 600.3756103515625 163.3341827392578 613.1511840820312 163.3341827392578 C 627.8115234375 163.3341827392578 641.809326171875 169.9930725097656 650.5953979492188 181.1468811035156 C 659.0426025390625 191.8703765869141 661.9869995117188 205.9097747802734 658.673583984375 219.6653747558594 C 657.38134765625 225.0429992675781 655.6463623046875 230.0667266845703 653.806396484375 234.7540283203125 C 658.3823852539062 234.07470703125 663.0948486328125 233.7311859130859 667.9234008789062 233.7311859130859 L 670.4332885742188 233.7622833251953 C 682.35595703125 234.0759124755859 693.3922119140625 237.1688385009766 702.8193969726562 242.4392395019531 C 709.82470703125 231.006591796875 719.6897583007812 223.7061767578125 732.2407836914062 220.6912841796875 C 735.9597778320312 219.8044738769531 739.7191772460938 219.3597869873047 743.4553833007812 219.3597869873047 C 757.4739379882812 219.3597869873047 769.8102416992188 225.3057250976562 777.9948120117188 235.22216796875 L 782.3370971679688 235.2044830322266 C 785.882080078125 235.2044830322266 789.4251098632812 235.236572265625 792.9669799804688 235.3407745361328 C 799.0881958007812 235.5208740234375 817.7172241210938 236.0689849853516 830.6253051757812 251.8337860107422 C 840.2738037109375 263.6197814941406 843.3013916015625 279.6602783203125 838.7255859375 294.7437744140625 C 836.6650390625 301.5361938476562 833.2178344726562 307.6372985839844 828.7218017578125 312.7027587890625 C 838.551025390625 322.4288024902344 843.5634155273438 336.741455078125 841.1835327148438 351.577392578125 C 837.2890014648438 375.8622741699219 818.260986328125 391.8018798828125 791.5252075195312 393.1748657226562 C 786.477783203125 393.4339904785156 781.4135131835938 393.5615844726562 776.3489990234375 393.5615844726562 C 771.302490234375 393.5615844726562 766.2559204101562 393.4348754882812 761.2258911132812 393.1854858398438 C 747.7601928710938 392.6642761230469 735.102783203125 387.6375732421875 725.1246337890625 378.896728515625 C 720.2197875976562 383.6068420410156 714.2308959960938 387.3269653320312 707.4044189453125 389.6688842773438 C 699.8480224609375 392.1711730957031 692.9044189453125 393.3452758789062 685.9188842773438 393.3452758789062 L 678.0675048828125 393.3047790527344 L 670.1702270507812 393.3269653320312 L 662.0635986328125 393.3496704101562 C 658.2224731445312 393.3496704101562 654.3828125 393.3267822265625 650.5430297851562 393.25146484375 C 637.4769287109375 392.9955139160156 625.9374389648438 390.3925170898438 616.0040893554688 385.4790649414062 C 610.5530395507812 388.7178039550781 604.3123168945312 390.9494323730469 597.4055786132812 392.0724792480469 C 591.4174194335938 393.04638671875 585.09912109375 393.540283203125 578.6268920898438 393.540283203125 C 572.8878173828125 393.5403747558594 567.0173950195312 393.1708679199219 560.68017578125 392.4105834960938 C 558.4256591796875 392.1402587890625 556.2025146484375 391.695068359375 554.0344848632812 391.0840148925781 C 547.1070556640625 392.8105163574219 539.8941040039062 393.6819763183594 532.4826049804688 393.6821899414062 Z" stroke="none"/>
      <path d="M 532.4820556640625 368.6821594238281 C 540.145263671875 368.6820068359375 547.7886962890625 367.4579467773438 555.3909912109375 364.4562683105469 C 557.75146484375 366.1273193359375 560.6185913085938 367.2241516113281 563.6580200195312 367.588623046875 C 573.570068359375 368.7776794433594 583.5256958007812 369.0014343261719 593.3931884765625 367.3965148925781 C 602.7957763671875 365.86767578125 609.7077026367188 360.8392028808594 613.082763671875 351.5400390625 C 622.4403686523438 363.5388488769531 635.2686157226562 367.9474487304688 651.032958984375 368.2562561035156 C 660.0426635742188 368.4328918457031 669.05615234375 368.3048400878906 678.0689086914062 368.3048095703125 C 680.5467529296875 368.3048095703125 683.0258178710938 368.3144836425781 685.5032348632812 368.3428649902344 C 690.2774047851562 368.3984985351562 694.850830078125 367.4915771484375 699.2919311523438 366.0217895507812 C 719.925537109375 358.9430847167969 720.3723754882812 327.6163940429688 697.0277709960938 325.0877990722656 C 700.7982788085938 321.90966796875 703.1426391601562 318.452392578125 705.5776977539062 314.9836730957031 C 712.8328857421875 325.0385131835938 716.594970703125 327.0556945800781 728.91943359375 327.5193176269531 C 727.8035888671875 347.4706115722656 740.1232299804688 367.3494567871094 762.4638061523438 368.2162780761719 C 771.7037963867188 368.6742553710938 781.0050659179688 368.6820678710938 790.2431030273438 368.2077941894531 C 803.2725219726562 367.5386352539062 814.2144775390625 361.8636779785156 816.4990844726562 347.61767578125 C 818.0040283203125 338.2361450195312 813.1415405273438 328.5740356445312 803.1627197265625 325.9137878417969 C 797.299560546875 324.3505859375 791.4141845703125 324.6305541992188 785.53076171875 324.6305541992188 C 784.068115234375 324.6305541992188 782.60498046875 324.6132507324219 781.1429443359375 324.5460205078125 C 780.5320434570312 324.51806640625 779.896240234375 324.5861206054688 779.2574462890625 324.5861206054688 C 778.2674560546875 324.5861206054688 777.2705078125 324.4220581054688 776.348876953125 323.4807434082031 C 779.160400390625 315.6099243164062 785.1927490234375 310.1705017089844 790.4351196289062 304.5784912109375 C 794.1212158203125 303.7166137695312 797.4793090820312 303.1271057128906 800.7158203125 302.140625 C 814.8084106445312 297.8474426269531 820.600830078125 279.0549621582031 811.2820434570312 267.6717834472656 C 806.3963623046875 261.7047424316406 799.3593139648438 260.5396728515625 792.2313232421875 260.3300476074219 C 784.2457275390625 260.0948791503906 776.2489624023438 260.2620849609375 768.256103515625 260.2620849609375 C 767.8068237304688 260.2620849609375 767.3568725585938 260.2615356445312 766.9075317382812 260.2603759765625 C 766.35595703125 260.2598571777344 765.7886352539062 260.2999572753906 765.2285766601562 260.2999572753906 C 764.3977661132812 260.2999572753906 763.5753784179688 260.2096557617188 762.802978515625 259.7565002441406 C 760.1905517578125 247.8851776123047 749.0538940429688 242.38330078125 738.0798950195312 244.9998016357422 C 729.5097045898438 247.0585021972656 724.8197021484375 253.0219116210938 721.5895385742188 260.436279296875 C 717.7078857421875 269.3469848632812 714.2562866210938 278.4449768066406 710.5582885742188 287.4366149902344 C 710.2070922851562 288.2900390625 710.3014526367188 289.5916748046875 708.7894287109375 289.861083984375 C 705.78662109375 270.6233215332031 688.0860595703125 259.2351989746094 669.8162841796875 258.7547302246094 C 626.3568115234375 257.6817626953125 604.0707397460938 293.5760803222656 605.2337036132812 327.6466064453125 C 600.2432250976562 325.6400451660156 595.5385131835938 324.5699157714844 590.4290771484375 324.4074401855469 C 601.2901611328125 297.08544921875 612.55224609375 269.9921569824219 623.3887329101562 242.6674499511719 C 627.2000122070312 233.1114501953125 631.9449462890625 223.8974456787109 634.3687133789062 213.8109741210938 C 639.61181640625 192.0445861816406 612.180908203125 179.8739471435547 596.5557861328125 195.1796722412109 C 592.2020263671875 199.2526245117188 589.1576538085938 204.2241516113281 586.9140625 209.7063903808594 C 579.7100219726562 227.3780364990234 572.5400390625 245.0377960205078 565.3311157226562 262.7171936035156 C 564.76123046875 262.6152038574219 564.4010009765625 262.620849609375 564.1019287109375 262.48779296875 C 551.6585083007812 256.9591674804688 539.0116577148438 257.2434387207031 526.9595336914062 262.8833312988281 C 501.7096862792969 274.5619201660156 487.1688537597656 300.39013671875 487.1273193359375 327.9990844726562 C 479.4988098144531 324.0836791992188 471.5506286621094 324.560791015625 463.5397644042969 324.560791015625 C 460.6076049804688 324.560791015625 457.6656188964844 324.496826171875 454.7297973632812 324.1301574707031 C 457.7333374023438 315.6859130859375 463.7981567382812 310.2655639648438 469.1235656738281 304.5088500976562 C 483.0726318359375 302.0083923339844 492.3816833496094 298.1267395019531 494.16943359375 282.847900390625 C 495.1706237792969 275.4497985839844 492.9114379882812 268.8946228027344 486.3983764648438 264.4881591796875 C 481.6753234863281 261.2925109863281 476.2233276367188 260.3876647949219 470.6700439453125 260.3046264648438 C 463.1221008300781 260.1907348632812 455.5721435546875 260.2631530761719 448.022216796875 260.2631530761719 C 447.1297302246094 260.2631530761719 446.2366027832031 260.2621154785156 445.3441467285156 260.2596740722656 C 444.8735961914062 260.2586975097656 444.3954772949219 260.2907409667969 443.90966796875 260.2907409667969 C 442.9743957519531 260.2907409667969 442.0122375488281 260.170166015625 441.0319213867188 259.4547424316406 C 446.663330078125 230.8649749755859 445.0106201171875 197.6435546875 424.6034545898438 174.9215545654297 C 433.7456665039062 164.5796813964844 429.5587463378906 153.6385040283203 423.2068481445312 148.9377899169922 C 419.2991943359375 146.046142578125 414.9714660644531 145.1884918212891 410.2476806640625 145.8766174316406 C 403.7381591796875 146.82568359375 399.8115539550781 151.0590972900391 396.95849609375 156.6616821289062 C 383.4190368652344 152.2783966064453 369.7548522949219 151.2384490966797 356.0470886230469 152.9742736816406 C 350.3248596191406 144.7789459228516 343.5860290527344 141.8823547363281 335.8234558105469 144.0957946777344 C 328.3022766113281 146.2410888671875 324.3136901855469 152.2552032470703 323.5875549316406 162.6610870361328 C 285.2181396484375 182.4027404785156 264.8609619140625 223.91650390625 260.4016723632812 265.4364929199219 C 257.6801452636719 286.1540222167969 259.6552124023438 306.4169616699219 268.2260437011719 325.6343994140625 C 279.885009765625 354.6299438476562 306.1966552734375 367.962890625 333.6949157714844 367.9617919921875 C 354.505859375 367.9609680175781 375.9978637695312 360.3229675292969 392.3241577148438 346.0570983886719 C 397.6142578125 341.7040405273438 402.2241516113281 336.6454467773438 407.31591796875 331.6802673339844 C 408.8981628417969 352.6651306152344 422.3031921386719 369.0960693359375 445.3406066894531 368.3329772949219 C 450.5231323242188 368.0955505371094 456.1544494628906 368.3821105957031 461.7437744140625 368.3819885253906 C 475.0554504394531 368.3817138671875 488.1129760742188 366.7556457519531 494.1869812011719 352.5546264648438 C 500.8119201660156 360.8321533203125 505.6517944335938 364.7813415527344 512.8724975585938 366.3622741699219 C 519.41748046875 367.7950439453125 525.9567260742188 368.6823120117188 532.4820556640625 368.6821594238281 M 532.4829711914062 418.6821594238281 C 532.4828491210938 418.6821594238281 532.4828491210938 418.6821594238281 532.4828491210938 418.6821594238281 C 522.7788696289062 418.6822814941406 512.8666381835938 417.5451049804688 502.1796875 415.20556640625 C 499.8462524414062 414.6946716308594 497.6069030761719 414.0933837890625 495.4565734863281 413.4130249023438 C 486.04345703125 416.5304870605469 474.909423828125 418.3816833496094 461.7450866699219 418.3820190429688 C 459.4477844238281 418.3820190429688 457.1452026367188 418.3428649902344 454.8621520996094 418.3012084960938 L 449.9988708496094 418.2388610839844 C 449.1922607421875 418.2388610839844 448.400390625 418.2453308105469 447.6269836425781 418.2806091308594 C 445.9249877929688 418.3410949707031 444.8623962402344 418.3583984375 443.8106079101562 418.3583984375 C 425.60107421875 418.3585815429688 408.9481506347656 412.9926452636719 395.2114868164062 403.5675354003906 C 376.1418762207031 412.8861694335938 354.8977661132812 417.9609680175781 333.6969604492188 417.9617919921875 C 283.3031921386719 417.9637756347656 240.6702880859375 390.1028442382812 222.1977386474609 345.177734375 C 210.6787567138672 318.9352722167969 206.8277587890625 290.1211547851562 210.7507629394531 259.51611328125 C 216.7349853515625 205.1614074707031 242.5029144287109 158.4462127685547 281.1223449707031 130.2924041748047 C 289.2403259277344 113.5009078979492 303.4738464355469 101.3287963867188 322.1087341308594 96.01344299316406 C 328.2420349121094 94.26473999023438 334.4969787597656 93.37862396240234 340.7041625976562 93.37862396240234 C 348.6509094238281 93.37862396240234 360.9556274414062 94.89141082763672 373.6221008300781 102.2681045532227 C 376.6339111328125 102.3757171630859 379.635498046875 102.5782775878906 382.6260681152344 102.8753814697266 C 390.3570556640625 98.94960021972656 397.6587219238281 97.18338775634766 403.0341491699219 96.39968109130859 C 406.4407348632812 95.90332794189453 409.8739013671875 95.65203094482422 413.2429809570312 95.65203094482422 C 427.6429748535156 95.65203094482422 441.3728637695312 100.1795654296875 452.9483947753906 108.7453231811523 C 467.8935546875 119.8054428100586 477.5827331542969 136.7743835449219 479.5333251953125 155.3025054931641 C 479.9750671386719 159.4983367919922 480.0166320800781 163.6823883056641 479.6705322265625 167.8144989013672 C 486.5329895019531 181.5425109863281 490.9481506347656 196.8106079101562 492.8269348144531 213.224365234375 C 497.1618041992188 214.4052429199219 501.3123474121094 215.9424896240234 505.2642822265625 217.8316955566406 C 505.497802734375 217.7217559814453 505.7354736328125 217.6108093261719 505.9699096679688 217.5023803710938 C 514.6777954101562 213.4271392822266 523.7677001953125 210.7063751220703 533.0547485351562 209.3976593017578 L 540.6134643554688 190.8315582275391 C 545.733642578125 178.3206481933594 552.9188842773438 167.6484375 561.9987182617188 159.0420837402344 C 575.8532104492188 145.683837890625 593.994873046875 138.3341522216797 613.1511840820312 138.3341522216797 C 635.4078979492188 138.3341522216797 656.7474365234375 148.5558013916016 670.234130859375 165.6768493652344 C 680.270263671875 178.4175262451172 685.3641967773438 194.0578308105469 684.9943237304688 210.1522521972656 C 688.5230102539062 210.7650451660156 691.977783203125 211.5699005126953 695.3547973632812 212.5579071044922 C 705.7162475585938 203.2402801513672 717.0428466796875 198.6309051513672 726.4013061523438 196.3828582763672 C 732.0575561523438 195.0339202880859 737.7682495117188 194.3598022460938 743.455322265625 194.3598022460938 C 760.3373413085938 194.3598022460938 775.906982421875 200.2176055908203 788.047607421875 210.2366027832031 C 789.932861328125 210.2594909667969 791.8179931640625 210.2961883544922 793.7025146484375 210.3516845703125 C 817.6824951171875 211.0569763183594 836.6137084960938 219.6850891113281 849.96875 235.9962615966797 C 864.9108276367188 254.2485046386719 869.650390625 278.9222717285156 862.6489868164062 302.001220703125 C 861.6124877929688 305.4177856445312 860.342529296875 308.7221069335938 858.8587036132812 311.8928833007812 C 865.615478515625 324.8043823242188 868.3613891601562 339.9931640625 865.867919921875 355.5372009277344 C 860.0870971679688 391.5847473144531 831.4091186523438 416.1594543457031 792.8076782226562 418.1420288085938 C 781.8899536132812 418.7023620605469 770.9025268554688 418.696044921875 759.98828125 418.1549682617188 C 747.8086547851562 417.6839904785156 736.039306640625 414.5692443847656 725.4043579101562 409.1080627441406 C 722.2571411132812 410.7262268066406 718.9572143554688 412.1358032226562 715.5169677734375 413.3160400390625 C 705.2661743164062 416.711669921875 695.481201171875 418.3453369140625 685.9185180664062 418.3453369140625 L 662.0650634765625 418.3496704101562 C 658.0596923828125 418.3496704101562 654.0565185546875 418.3251953125 650.052490234375 418.2466125488281 C 637.92138671875 418.0090026855469 626.741455078125 416.1820373535156 616.5543212890625 412.7846984863281 C 611.7670288085938 414.5563659667969 606.7083129882812 415.8881530761719 601.4176635742188 416.7483825683594 C 594.1091918945312 417.9371032714844 586.4406127929688 418.5401611328125 578.627685546875 418.5403747558594 C 571.8828735351562 418.5403747558594 565.0388793945312 418.1126098632812 557.7031860351562 417.2327270507812 C 556.455810546875 417.0831604003906 555.2150268554688 416.8995056152344 553.9807739257812 416.6820983886719 C 546.9843139648438 418.01220703125 539.801513671875 418.6820373535156 532.4828491210938 418.6821594238281 L 532.4829711914062 418.6821594238281 Z" stroke="none" fill="#fff"/>
    </g>
    <g id="Path_2" data-name="Path 2" transform="translate(-3.854 -7.443)" fill="#fff" stroke-linecap="round">
      <path d="M 337.5592346191406 391.3671569824219 C 297.5216979980469 391.3671569824219 265.3715515136719 367.8245849609375 253.6551208496094 329.9266967773438 C 241.1661224365234 292.7357788085938 247.2556457519531 243.5152130126953 269.3526306152344 205.1014251708984 C 289.8979187011719 167.8287353515625 330.3304443359375 143.4895324707031 372.1367492675781 143.4895324707031 C 384.7020568847656 143.4895324707031 397.0319213867188 145.6601104736328 408.7838134765625 149.9409942626953 L 418.9948120117188 153.6605834960938 L 422.3372497558594 161.536376953125 L 430.4287414550781 161.536376953125 L 438.3926391601562 169.5209503173828 C 465.2224731445312 198.4098510742188 465.0479125976562 233.4801025390625 462.5826416015625 257.346435546875 L 458.96533203125 292.3656921386719 L 427.1214904785156 277.42236328125 C 427.0595092773438 277.5602416992188 426.9957885742188 277.7087097167969 426.9307556152344 277.8682556152344 L 422.9964294433594 287.582275390625 C 419.8075561523438 295.44189453125 416.618408203125 303.3007202148438 413.516357421875 311.1943054199219 L 449.0592346191406 321.6505737304688 L 421.0103759765625 351.6882019042969 L 418.9021301269531 353.8776245117188 C 417.1336975097656 355.7244262695312 415.4473876953125 357.4750671386719 413.6971740722656 359.1589965820312 C 394.196533203125 379.3893127441406 366.2064819335938 391.3671569824219 337.5592346191406 391.3671569824219 Z" stroke="none"/>
      <path d="M 372.13671875 168.4895629882812 C 339.1201477050781 168.4895629882812 307.3108825683594 188.02490234375 291.0230407714844 217.5670776367188 C 273.817138671875 247.4781494140625 266.4112854003906 289.383056640625 277.5397338867188 322.5425415039062 C 294.3650207519531 376.9655151367188 361.0379028320312 377.7464599609375 396.3637390136719 341.1436767578125 C 398.5940551757812 338.9977722167969 400.6942138671875 336.7167663574219 403.0997314453125 334.2465209960938 C 393.6099853515625 331.4547729492188 388.1812133789062 325.6875610351562 387.138427734375 316.2589111328125 C 386.6072692871094 311.4521484375 388.3078308105469 306.9970703125 390.0104370117188 302.6567687988281 C 394.5014343261719 291.2102355957031 399.1773681640625 279.8363037109375 403.7794494628906 268.4333801269531 C 409.880126953125 253.4635009765625 422.867431640625 247.8102416992188 437.7149658203125 254.7777709960938 C 440.3258972167969 229.5010681152344 438.0428161621094 205.8813781738281 420.07421875 186.5337829589844 C 409.0563659667969 186.6382141113281 404.5575866699219 183.635009765625 400.22705078125 173.4310913085938 C 390.9815368652344 170.0632019042969 381.5138549804688 168.4895629882812 372.13671875 168.4895629882812 M 372.1367492675781 118.4895324707031 C 387.6291198730469 118.4895324707031 402.8378295898438 121.1681518554688 417.3403625488281 126.450927734375 L 437.7623596191406 133.8900146484375 L 438.8067321777344 136.350830078125 L 441.5842895507812 136.3241577148438 L 456.7110595703125 152.5081481933594 C 494.3577270507812 193.0440063476562 489.1587524414062 243.3757019042969 487.4503784179688 259.9151611328125 L 482.7359619140625 305.5557250976562 L 496.8007507324219 309.6933898925781 L 480.5889282226562 326.3411865234375 L 480.2157592773438 329.9541625976562 L 478.0570678710938 328.941162109375 L 436.9588928222656 371.1678466796875 C 435.1744079589844 373.0314636230469 433.4598693847656 374.8055725097656 431.7057189941406 376.5196533203125 C 406.91259765625 401.8554382324219 372.6529235839844 416.3671569824219 337.5592041015625 416.3671569824219 C 286.3523864746094 416.3671569824219 245.1738586425781 386.3136596679688 229.9509582519531 337.8895263671875 C 215.1178894042969 293.0644836425781 221.8922424316406 237.4695434570312 247.68212890625 192.6358337402344 C 272.33544921875 147.9038391113281 321.3614501953125 118.4895324707031 372.1367492675781 118.4895324707031 Z" stroke="none" fill="#fff"/>
    </g>
    <g id="Path_3" data-name="Path 3" transform="translate(-99.89 -22.749)" fill="#fff" stroke-linecap="round">
      <path d="M 637.2376708984375 407.0656127929688 C 635.5574951171875 407.0656127929688 633.8557739257812 407.0040283203125 632.1361694335938 406.8910827636719 C 631.5887451171875 406.8551025390625 631.0380859375 406.8508911132812 630.4866943359375 406.8508911132812 L 628.2094116210938 406.8769836425781 L 625.1170654296875 406.9097595214844 C 622.8543701171875 406.9097595214844 619.4108276367188 406.8439025878906 615.647216796875 406.2745666503906 C 592.204345703125 402.7311096191406 574.6183471679688 384.0959777832031 571.8894653320312 359.9038391113281 C 567.9971313476562 325.3837585449219 581.541015625 296.3936157226562 611.0567016601562 276.0664672851562 C 620.9467163085938 269.1486206054688 633.3094482421875 265.2820739746094 645.71923828125 265.2820739746094 C 649.15234375 265.2820739746094 652.5397338867188 265.5797424316406 655.8425903320312 266.1585998535156 C 659.8544311523438 256.2983703613281 663.8409423828125 246.5194854736328 667.8555297851562 236.751708984375 L 669.3010864257812 233.0755310058594 C 671.2412719726562 228.0403442382812 673.6559448242188 221.77392578125 677.7626342773438 215.5557556152344 C 688.9146728515625 198.6686553955078 703.4603271484375 195.1238403320312 713.6987915039062 195.1238403320312 L 714.231689453125 195.1238403320312 L 715.5863037109375 195.1642456054688 C 726.2286987304688 195.6183471679688 736.1158447265625 200.5164794921875 742.7129516601562 208.6027526855469 C 749.2760620117188 216.6472473144531 752.0774536132812 227.2456665039062 750.39892578125 237.6804351806641 C 749.14013671875 245.5042572021484 746.3298950195312 251.8053894042969 744.0718383789062 256.8683776855469 C 743.4934692382812 258.1651000976562 742.9100952148438 259.4589233398438 742.38232421875 260.7721252441406 C 736.1231079101562 276.4559936523438 729.7548217773438 292.1385803222656 723.3868408203125 307.8198852539062 C 719.5437622070312 317.2836608886719 715.7005004882812 326.74755859375 711.8770751953125 336.2229919433594 C 722.7088012695312 341.962890625 726.8621215820312 351.3136596679688 728.3502197265625 356.0400390625 C 733.0149536132812 370.8567199707031 727.6651611328125 387.9103088378906 715.3405151367188 397.5114440917969 C 707.6215209960938 403.5223999023438 698.1046752929688 406.7626037597656 687.8150024414062 406.8846740722656 L 685.4805297851562 406.8978881835938 L 680.8916625976562 406.8667907714844 L 676.8204956054688 406.8383483886719 C 675.2636108398438 406.8383483886719 673.7079467773438 406.8563537597656 672.1542358398438 406.9288940429688 C 671.292236328125 406.9690551757812 670.4409790039062 406.9892883300781 669.6026000976562 406.9893493652344 C 664.2150268554688 406.9895629882812 659.1563110351562 406.1143798828125 654.5303344726562 404.4209899902344 C 649.2476806640625 406.1808166503906 643.4760131835938 407.0655822753906 637.2376708984375 407.0656127929688 Z" stroke="none"/>
      <path d="M 713.6986694335938 220.1238708496094 C 706.8627319335938 220.1239318847656 702.2362670898438 223.8626708984375 698.6237182617188 229.3330688476562 C 695.174072265625 234.5564270019531 693.3313598632812 240.5311279296875 690.9786376953125 246.2554321289062 C 683.6431274414062 264.1029968261719 676.4013061523438 281.9892883300781 668.9271240234375 300.3392944335938 C 657.9085083007812 287.7002258300781 638.247802734375 287.5559997558594 625.236572265625 296.6560668945312 C 604.1525268554688 311.1764221191406 593.807861328125 331.1684875488281 596.73193359375 357.1016235351562 C 598.181396484375 369.9509887695312 607.2327880859375 379.7187194824219 619.3863525390625 381.5557861328125 C 623.0199584960938 382.10546875 626.7650146484375 381.8509216308594 630.486572265625 381.8509216308594 C 631.5858154296875 381.8509216308594 632.6835327148438 381.8731384277344 633.775146484375 381.9448547363281 C 642.0209350585938 382.4866333007812 649.6696166992188 381.4024658203125 655.706298828125 374.6227111816406 C 659.40576171875 380.6559448242188 664.6787109375 382.2502746582031 670.988037109375 381.9561462402344 C 675.8094482421875 381.73095703125 680.6472778320312 381.8978881835938 685.4804077148438 381.8978881835938 C 686.1597290039062 381.8978881835938 686.8394775390625 381.8945922851562 687.5184936523438 381.8864135742188 C 692.0818481445312 381.832275390625 696.322998046875 380.634765625 699.9766235351562 377.78955078125 C 704.0806274414062 374.5924987792969 706.0478515625 368.4509887695312 704.504150390625 363.5477905273438 C 702.9183959960938 358.5108642578125 698.8108520507812 357.0382690429688 694.1517944335938 356.5774230957031 C 689.0472412109375 356.23779296875 684.274169921875 356.3850708007812 679.1318359375 356.3851318359375 C 678.3939208984375 356.3851318359375 677.6482543945312 356.382080078125 676.89306640625 356.3741455078125 C 690.7760009765625 321.2678527832031 705.1964111328125 286.5020751953125 719.1856689453125 251.44921875 C 721.5335083007812 245.607421875 724.6974487304688 240.0421447753906 725.7162475585938 233.7099914550781 C 726.875732421875 226.5018615722656 721.809326171875 220.4524841308594 714.52099609375 220.1415710449219 C 714.2433471679688 220.1297302246094 713.9693603515625 220.1238708496094 713.6986694335938 220.1238708496094 M 713.6982421875 170.1238403320312 L 714.765869140625 170.1238403320312 L 716.6543579101562 170.1870727539062 C 734.4191284179688 170.9450073242188 750.9783935546875 179.1866455078125 762.0838623046875 192.7987060546875 C 773.1552734375 206.3690795898438 777.892822265625 224.1749877929688 775.0816650390625 241.6509399414062 C 773.3035888671875 252.7022705078125 769.452392578125 261.3373413085938 766.9039306640625 267.0514221191406 C 766.45263671875 268.0633544921875 765.9907836914062 269.0702209472656 765.5789184570312 270.0950012207031 C 759.3238525390625 285.768798828125 752.9369506835938 301.4974365234375 746.55029296875 317.2247924804688 C 744.96533203125 321.1278076171875 743.3800659179688 325.0316162109375 741.7965087890625 328.9353637695312 C 746.3462524414062 334.5867919921875 749.8786010742188 341.1709289550781 752.1963500976562 348.5327758789062 C 760.0536499023438 373.4893493652344 751.4165649414062 401.0982055664062 730.7040405273438 417.2335815429688 C 718.6355590820312 426.6316528320312 703.9097900390625 431.6954956054688 688.1117553710938 431.8829345703125 L 685.48046875 431.8978576660156 L 676.8209228515625 431.8383483886719 C 675.6530151367188 431.8383483886719 674.4861450195312 431.8472900390625 673.3206787109375 431.9017333984375 C 672.0631103515625 431.9602661132812 670.8231811523438 431.9893493652344 669.6017456054688 431.9893493652344 C 664.3311157226562 431.9893493652344 659.215087890625 431.4286499023438 654.3123779296875 430.3392944335938 C 649.1110229492188 431.4367980957031 643.4281616210938 432.0656433105469 637.2374267578125 432.0656433105469 C 635.01806640625 432.0656433105469 632.7703857421875 431.986572265625 630.4988403320312 431.8374328613281 L 625.1172485351562 431.9097290039062 C 622.0474243164062 431.9097290039062 617.3383178710938 431.814697265625 611.9085693359375 430.993408203125 C 577.129150390625 425.7363586425781 551.0613403320312 398.2935180664062 547.0469970703125 362.7062072753906 C 542.12744140625 319.0752868652344 559.8241577148438 280.99462890625 596.876953125 255.4768676757812 C 609.07421875 246.9446105957031 624.0042114257812 241.68798828125 639.29248046875 240.5266723632812 C 641.103271484375 236.0939636230469 642.9151000976562 231.66943359375 644.732421875 227.2478637695312 L 645.97314453125 224.0862731933594 C 648.2219848632812 218.2500610351562 651.3019409179688 210.2571411132812 656.9014282226562 201.778564453125 C 675.0895385742188 174.2367858886719 700.2933959960938 170.1239929199219 713.6982421875 170.1238403320312 Z" stroke="none" fill="#fff"/>
    </g>
    <g id="Path_4" data-name="Path 4" transform="translate(-149.512 -52.275)" fill="#fff" stroke-linecap="round">
      <path d="M 813.76953125 436.5728149414062 C 808.1051025390625 436.5728149414062 802.4432373046875 436.5105285644531 796.785400390625 436.3222351074219 C 765.150390625 435.2705993652344 743.1204833984375 415.5144653320312 739.2935791015625 384.7635803222656 C 736.2711791992188 362.6025390625 743.4867553710938 339.4503784179688 759.1279907226562 321.5325317382812 C 773.997314453125 304.4988708496094 794.5732421875 294.7295837402344 815.5797119140625 294.7295837402344 C 824.0639038085938 294.7295837402344 832.4627075195312 296.2987670898438 840.5429077148438 299.3935852050781 C 864.0816650390625 307.7467956542969 878.2855224609375 331.6510620117188 874.5101318359375 357.3126525878906 C 873.7528686523438 362.4598083496094 872.3258056640625 367.3001403808594 870.315673828125 371.7545776367188 C 874.9425659179688 376.4476623535156 877.3347778320312 381.7938537597656 878.5689697265625 385.9017944335938 C 881.9603271484375 398.256103515625 879.6351318359375 410.4734497070312 872.3589477539062 420.0108947753906 C 864.5300903320312 430.2726440429688 851.7936401367188 436.3994445800781 838.2890625 436.4000854492188 L 828.6224975585938 436.4774169921875 C 823.6712036132812 436.5252990722656 818.719482421875 436.5728149414062 813.76953125 436.5728149414062 Z" stroke="none"/>
      <path d="M 813.7694702148438 411.5727844238281 C 821.8636474609375 411.5727844238281 829.962646484375 411.442626953125 838.056396484375 411.398681640625 C 848.1353759765625 411.5195922851562 857.549560546875 403.7690734863281 854.626220703125 393.0951843261719 C 852.631591796875 386.4562377929688 845.9132080078125 385.9384155273438 840.1171875 385.9060363769531 C 834.4282836914062 385.9003601074219 828.7402954101562 385.9093933105469 823.0511474609375 385.9093933105469 C 818.3070678710938 385.9093933105469 813.5617065429688 385.9030456542969 808.81787109375 385.8764953613281 C 801.928466796875 385.6597900390625 792.62646484375 386.2311096191406 792.614501953125 377.1521606445312 C 797.5765380859375 377.1077575683594 802.498779296875 377.1536254882812 807.4147338867188 377.1536254882812 C 812.8448486328125 377.1536254882812 818.2672729492188 377.0975646972656 823.7216796875 376.8017883300781 C 855.497314453125 375.2384338378906 859.0918579101562 332.5046691894531 831.60107421875 322.73974609375 C 795.4111938476562 308.8786010742188 759.1517333984375 345.3576049804688 764.1021728515625 381.6761779785156 C 766.5731201171875 401.5310363769531 779.7763671875 410.7429809570312 797.616943359375 411.3360595703125 C 802.997802734375 411.51513671875 808.3823852539062 411.5727844238281 813.7694702148438 411.5727844238281 M 813.7694702148438 461.5727844238281 C 807.8275756835938 461.5727844238281 801.888427734375 461.5059204101562 795.953369140625 461.308349609375 C 751.8350219726562 459.841796875 719.8558349609375 431.008056640625 714.4849243164062 387.8510437011719 C 710.5250244140625 358.8245544433594 719.9047241210938 328.4493103027344 740.2943725585938 305.0918579101562 C 759.9122314453125 282.6186218261719 787.3526611328125 269.7295532226562 815.5797119140625 269.7295532226562 C 826.9429321289062 269.7295532226562 838.1653442382812 271.7859802246094 848.9464721679688 275.8430786132812 C 884.0849609375 288.6394653320312 904.747802734375 323.5407409667969 899.243896484375 360.9514770507812 C 898.9033813476562 363.2658996582031 898.4662475585938 365.5404052734375 897.9361572265625 367.7735900878906 C 900.3515625 372.2651672363281 901.7581176757812 376.2002563476562 902.5116577148438 378.7082824707031 L 902.8502807617188 379.8876647949219 C 908.149169921875 399.2352294921875 904.280029296875 419.3865356445312 892.2349853515625 435.1746826171875 C 879.7075805664062 451.5952453613281 859.541259765625 461.3991088867188 838.2901611328125 461.4000549316406 L 828.8634033203125 461.4762268066406 C 823.8318481445312 461.5249328613281 818.7996826171875 461.5727844238281 813.7694702148438 461.5727844238281 Z" stroke="none" fill="#fff"/>
    </g>
    <g id="Path_5" data-name="Path 5" transform="translate(-191.374 -46.338)" fill="#fff" stroke-linecap="round">
      <path d="M 965.9714965820312 430.5644836425781 C 961.6190795898438 430.5644836425781 957.2686157226562 430.5317993164062 952.918212890625 430.4441833496094 C 929.6224975585938 429.9764709472656 909.7293090820312 411.7450866699219 905.3029174804688 387.8884582519531 C 902.8076171875 387.0787353515625 900.3840942382812 386.0078735351562 898.0772705078125 384.6878662109375 C 882.078369140625 375.5315246582031 875.8053588867188 357.6304931640625 882.466064453125 340.1425170898438 C 887.849609375 326.0059814453125 893.3780517578125 312.2452392578125 898.8974609375 299.2433776855469 C 905.4191284179688 283.8768310546875 918.7054443359375 274.7015991210938 934.4375 274.7015991210938 L 935.1774291992188 274.7015991210938 L 936.8857421875 274.7745361328125 C 949.1187133789062 275.4990539550781 959.0294189453125 281.2767028808594 964.8666381835938 290.71240234375 C 965.4129638671875 290.7142028808594 965.959228515625 290.7149963378906 966.5055541992188 290.7149963378906 L 973.3844604492188 290.6871032714844 L 980.5658569335938 290.6583251953125 L 982.764892578125 290.6627197265625 C 985.6361083984375 290.6751098632812 988.528076171875 290.8914794921875 991.3590087890625 291.327880859375 C 1016.169982910156 295.1559448242188 1021.579284667969 313.583251953125 1022.75341796875 321.3282775878906 C 1025.0703125 336.5992736816406 1018.346374511719 351.3680114746094 1005.790832519531 359.5015258789062 C 1015.387756347656 364.3192443847656 1020.125732421875 372.1935119628906 1022.418579101562 379.1844787597656 C 1027.319458007812 393.7314453125 1022.222473144531 410.9043273925781 1009.960815429688 420.7564086914062 C 1002.192016601562 426.9979553222656 992.6992797851562 430.3514099121094 982.5079956054688 430.4549560546875 C 976.9999389648438 430.5118408203125 971.484619140625 430.5644836425781 965.9714965820312 430.5644836425781 Z" stroke="none"/>
      <path d="M 934.4376220703125 299.7015991210938 C 928.0504760742188 299.7018737792969 924.2035522460938 303.6076965332031 921.9097900390625 309.0122985839844 C 916.291748046875 322.2465515136719 910.9459838867188 335.6039123535156 905.828857421875 349.0408020019531 C 903.5084838867188 355.1330261230469 905.5270385742188 360.146728515625 910.4935913085938 362.9891662597656 C 915.9014282226562 366.0835571289062 922.2328491210938 364.9837341308594 926.4014282226562 360.2085876464844 C 930.9169921875 354.9522094726562 932.786376953125 347.7799682617188 935.5331420898438 341.65185546875 L 947.0062866210938 341.65185546875 C 943.195068359375 346.2778625488281 939.5653076171875 350.5210876464844 936.4259643554688 355.1492309570312 C 931.3236083984375 362.6704711914062 928.8167114257812 370.8262939453125 929.4591674804688 379.9932250976562 C 930.4293823242188 393.8367309570312 940.8760986328125 405.1973571777344 953.4215087890625 405.44921875 C 963.0288696289062 405.6427307128906 972.6439208984375 405.5554809570312 982.2540283203125 405.456298828125 C 986.6864624023438 405.4112243652344 990.7947387695312 404.0856628417969 994.3020629882812 401.2679138183594 C 998.3440551757812 398.0201721191406 1000.283874511719 391.7857971191406 998.66357421875 386.9754638671875 C 996.5288696289062 380.4666748046875 989.7618408203125 380.0255432128906 983.9918823242188 379.9657287597656 C 981.0400390625 379.8841247558594 978.0883178710938 379.9648742675781 975.1353759765625 379.9649047851562 C 972.8197021484375 379.9649047851562 970.5029907226562 379.9151611328125 968.1875 379.6984252929688 C 960.4495239257812 378.9736633300781 957.0519409179688 374.0627136230469 959.3048095703125 366.5724792480469 C 962.9254150390625 356.4276123046875 971.0868530273438 348.8459167480469 978.54052734375 341.5118408203125 C 982.8416748046875 341.5872497558594 986.89697265625 341.1896057128906 990.6821899414062 339.3694763183594 C 995.988525390625 336.8175354003906 998.9449462890625 331.0672912597656 998.035888671875 325.0755920410156 C 997.2247314453125 319.7249755859375 994.1719360351562 317.0576477050781 987.550537109375 316.0361022949219 C 985.9393310546875 315.7877197265625 984.2930297851562 315.6695251464844 982.661376953125 315.6624755859375 C 977.2766723632812 315.64013671875 971.8912353515625 315.7149963378906 966.50634765625 315.7149963378906 C 963.2177734375 315.7149963378906 959.928466796875 315.6870727539062 956.6425170898438 315.5921020507812 C 946.8318481445312 315.3071594238281 947.6198120117188 316.7917175292969 944.9314575195312 307.0120239257812 C 943.5904541015625 302.1320495605469 940.431396484375 300.0282897949219 935.4071655273438 299.730712890625 C 935.077392578125 299.711181640625 934.7547607421875 299.7015686035156 934.4376220703125 299.7015991210938 M 934.4351806640625 249.7015991210938 L 935.91943359375 249.7015991210938 L 938.3682250976562 249.8184814453125 C 953.3590087890625 250.7063293457031 966.5364990234375 256.3759155273438 976.4630126953125 265.6747131347656 L 980.5681762695312 265.6583557128906 L 982.867431640625 265.6629028320312 C 987.0309448242188 265.680908203125 991.166015625 266.0028381347656 995.1680908203125 266.6197814941406 C 1023.325439453125 270.9639892578125 1043.3642578125 290.490966796875 1047.471069335938 317.5814819335938 C 1049.674560546875 332.1051330566406 1046.891235351562 346.3600158691406 1040.142822265625 358.3992309570312 C 1043.178955078125 363.3520812988281 1045.0595703125 367.9967041015625 1046.173583984375 371.3936767578125 C 1054.291381835938 395.48828125 1045.89111328125 423.9567260742188 1025.619873046875 440.2447204589844 C 1013.434936523438 450.0340576171875 998.6159057617188 455.2925415039062 982.7623901367188 455.4537353515625 C 972.6582641601562 455.5579833984375 962.5292358398438 455.642822265625 952.41455078125 455.4390869140625 C 921.7999877929688 454.824462890625 895.1129150390625 434.2612915039062 884.3953857421875 405.6434936523438 C 858.6448974609375 390.1339111328125 848.2431640625 359.7579650878906 859.103271484375 331.2442321777344 C 864.59765625 316.8168640136719 870.2440185546875 302.7627868652344 875.8851318359375 289.4744262695312 C 886.2957153320312 264.9444885253906 908.7315063476562 249.7028503417969 934.4351806640625 249.7015991210938 Z" stroke="none" fill="#fff"/>
    </g>
    <g id="Path_6" data-name="Path 6" transform="translate(-56.003 -46.347)" fill="#fff" stroke-linecap="round">
      <path d="M 509.3815612792969 430.5708618164062 C 504.9220275878906 430.5708618164062 500.4647521972656 430.53466796875 496.0072631835938 430.4418334960938 L 495.4216613769531 430.4296264648438 L 494.8372802734375 430.3900146484375 C 476.5453491210938 429.1501770019531 461.4341735839844 418.8960876464844 453.3784790039062 402.2570190429688 C 451.1723022460938 397.7001647949219 449.6088256835938 392.8750915527344 448.6756286621094 387.9295043945312 C 446.2312316894531 387.1424560546875 443.8570251464844 386.1050109863281 441.5954284667969 384.828369140625 C 425.7743225097656 375.8958129882812 419.3169860839844 358.1936340332031 425.5254516601562 340.77783203125 C 429.9897155761719 328.2565612792969 435.1884765625 315.3220825195312 442.3824157714844 298.8377075195312 C 448.968017578125 283.7433166503906 462.1573181152344 274.7304382324219 477.6628112792969 274.7304382324219 L 478.0763244628906 274.7304382324219 L 479.020263671875 274.7529907226562 C 491.5603637695312 275.1669311523438 501.8465881347656 280.9469909667969 508.0242004394531 290.6702880859375 C 509.0106201171875 290.6731872558594 509.9969177246094 290.6742858886719 510.9832763671875 290.6742858886719 L 516.263671875 290.6671447753906 L 521.6459350585938 290.6598205566406 L 526.2465209960938 290.6699523925781 C 528.9921875 290.6826477050781 531.7681274414062 290.8870849609375 534.4862670898438 291.3077087402344 C 551.95703125 294.0148620605469 563.7614135742188 305.2521362304688 566.068115234375 321.3681335449219 C 567.55419921875 333.417724609375 564.3174438476562 344.3260192871094 557.01953125 352.5758972167969 C 554.6966552734375 355.2017822265625 551.9967041015625 357.49609375 549.0001220703125 359.42529296875 C 559.7783813476562 364.7809448242188 564.1412353515625 373.8261413574219 565.8896484375 380.020263671875 C 570.0953369140625 394.7354736328125 565.8798828125 409.5628356933594 554.591064453125 419.6050109863281 C 546.7738037109375 426.5587768554688 536.896728515625 430.3069152832031 526.0272827148438 430.4445190429688 C 520.4801025390625 430.5147094726562 514.9295654296875 430.5708312988281 509.3815612792969 430.5708618164062 Z" stroke="none"/>
      <path d="M 477.662841796875 299.73046875 C 471.3304443359375 299.7307739257812 467.5904541015625 303.5771179199219 465.2955322265625 308.8371887207031 C 459.498779296875 322.1199951171875 453.942626953125 335.5167541503906 449.0739135742188 349.1725158691406 C 446.892822265625 355.2907409667969 448.8466186523438 360.2129516601562 453.8849487304688 363.0575561523438 C 459.1856689453125 366.0498046875 465.4306640625 364.9931335449219 469.526123046875 360.3768920898438 C 474.1619873046875 355.1254272460938 475.945556640625 347.9405822753906 478.7655029296875 341.7398681640625 L 490.2878723144531 341.7398681640625 C 485.9391479492188 346.7859497070312 481.9800720214844 351.5477600097656 478.6627502441406 356.8062438964844 C 466.4451293945312 374.6130676269531 473.1206665039062 403.8606262207031 496.5279541015625 405.447265625 C 506.2520751953125 405.6498107910156 515.9840087890625 405.5696411132812 525.7108154296875 405.4465026855469 C 530.2650756835938 405.3888854980469 534.509033203125 404.0090637207031 537.974853515625 400.9260559082031 C 542.2814331054688 397.0950622558594 543.3304443359375 392.0624389648438 541.8297729492188 386.8116149902344 C 540.0799560546875 380.6124572753906 533.2545776367188 380.049560546875 527.7723388671875 379.9756774902344 C 524.7178344726562 379.9033813476562 521.6627197265625 379.9783325195312 518.6072998046875 379.9783325195312 C 516.043701171875 379.9783325195312 513.4796142578125 379.925537109375 510.9174499511719 379.6886291503906 C 504.163818359375 379.0638122558594 500.71630859375 374.4618225097656 502.2563781738281 367.7721252441406 C 505.2037658691406 357.3634338378906 514.40576171875 348.7186889648438 521.9368896484375 341.4844970703125 C 532.5311889648438 342.1231689453125 542.8006591796875 336.9534912109375 541.3203735351562 324.9103698730469 C 540.5907592773438 319.8130187988281 537.3106689453125 317.043701171875 530.6632690429688 316.0137023925781 C 529.16748046875 315.7822570800781 527.6392822265625 315.6766357421875 526.125244140625 315.6696166992188 C 521.0780029296875 315.6451416015625 516.031005859375 315.6742858886719 510.9835815429688 315.67431640625 C 506.88916015625 315.67431640625 502.7940063476562 315.6551208496094 498.7013244628906 315.5725708007812 C 490.7515563964844 315.4128112792969 490.7550659179688 315.262939453125 488.4473876953125 307.5249938964844 C 486.8545227050781 302.1828308105469 483.7333984375 299.9221801757812 478.1934814453125 299.7393188476562 C 478.0143432617188 299.7333984375 477.8379516601562 299.73046875 477.662841796875 299.73046875 M 477.660400390625 249.7304382324219 L 479.8499450683594 249.7667541503906 C 495.4238586425781 250.2808532714844 509.1935729980469 255.9888000488281 519.5609130859375 265.6626892089844 L 521.6488037109375 265.6598815917969 L 526.3681640625 265.6701965332031 C 530.4138793945312 265.6889343261719 534.4351806640625 266.0023193359375 538.3087158203125 266.6016845703125 C 566.809814453125 271.017822265625 586.9254150390625 290.6451416015625 590.81591796875 317.82568359375 C 592.6583862304688 332.7544860839844 590.0238037109375 346.6107482910156 583.3978271484375 358.3985900878906 C 587.110107421875 364.470947265625 589.043701171875 370.0196838378906 589.9495849609375 373.2291259765625 C 596.73291015625 396.9626770019531 589.568359375 421.9506225585938 571.20703125 438.2840576171875 C 558.829345703125 449.2945556640625 543.31591796875 455.2277526855469 526.3434448242188 455.4425048828125 C 516.05859375 455.5726928710938 505.7682495117188 455.6506958007812 495.4863891601562 455.4364013671875 L 494.3152465820312 455.4119873046875 L 493.1465148925781 455.332763671875 C 466.0538330078125 453.496337890625 442.7754516601562 437.7274475097656 430.8768920898438 413.1510009765625 C 429.6940307617188 410.7078857421875 428.6412353515625 408.2118225097656 427.7166137695312 405.6719360351562 C 402.4931030273438 390.4736938476562 391.9142456054688 360.6106872558594 401.9769897460938 332.3831787109375 C 406.5789794921875 319.4754333496094 412.1371459960938 305.6393737792969 419.4692993164062 288.8381958007812 C 430.1520385742188 264.3530578613281 451.9064331054688 249.731689453125 477.660400390625 249.7304382324219 Z" stroke="none" fill="#fff"/>
    </g>
    <g id="Path_7" data-name="Path 7" transform="translate(-27.954 -42.653)" fill="#fff" stroke-linecap="round">
      <path d="M 369.0361938476562 383.5639953613281 C 359.2679748535156 383.5639953613281 350.0404052734375 379.5686950683594 343.05322265625 372.3140869140625 C 331.6251525878906 360.4486083984375 328.1010437011719 341.6429443359375 328.6136169433594 328.0001831054688 C 329.5007934570312 312.4839172363281 333.240478515625 299.0587158203125 339.7522583007812 287.6009216308594 C 348.9015197753906 271.503173828125 364.3084106445312 262.2709350585938 382.0227355957031 262.2709350585938 C 384.7915344238281 262.2709350585938 387.6219482421875 262.5024108886719 390.435302734375 262.958984375 C 401.6476135253906 264.7363586425781 411.2547302246094 270.7950744628906 417.396484375 280.0046081542969 C 427.6296997070312 295.3492431640625 425.8102111816406 314.9774780273438 422.4819030761719 328.7414855957031 C 418.1750183105469 348.0835876464844 406.0589294433594 366.6924133300781 390.9635009765625 376.8686218261719 L 390.177001953125 377.3988037109375 L 389.3526000976562 377.8678894042969 C 382.7098388671875 381.6475219726562 375.8743896484375 383.5639953613281 369.0361938476562 383.5639953613281 Z" stroke="none"/>
      <path d="M 369.0361938476562 358.5639953613281 C 371.3852233886719 358.5639953613281 374.0304565429688 357.8224487304688 376.9891357421875 356.1390380859375 C 387.639892578125 348.9590148925781 395.4199523925781 335.259033203125 398.1822509765625 322.8655395507812 C 401.1224975585938 310.7063293457031 402.7892456054688 290.2295532226562 386.430419921875 287.6361389160156 C 375.9564819335938 285.9363098144531 367.0356750488281 290.1914978027344 361.4873046875 299.95361328125 C 356.109130859375 309.4167175292969 354.120849609375 319.8099670410156 353.595947265625 328.9387817382812 C 353.1463317871094 340.9071350097656 357.5710144042969 358.5639953613281 369.0361938476562 358.5639953613281 M 369.0361938476562 408.5640258789062 C 352.4122619628906 408.5640258789062 336.7898254394531 401.8493041992188 325.0468444824219 389.6567993164062 C 303.8214416503906 367.6189575195312 303.2888488769531 336.1741333007812 303.6311950683594 327.0616149902344 C 304.7646484375 307.1767272949219 309.5888977050781 290.0782470703125 318.0172424316406 275.2482604980469 C 331.5331420898438 251.4676666259766 355.460205078125 237.2709045410156 382.0226745605469 237.2709045410156 C 386.1284790039062 237.2709045410156 390.3061828613281 237.6110229492188 394.4396057128906 238.2817840576172 C 412.5338439941406 241.1499633789062 428.1373596191406 251.0516052246094 438.195556640625 266.1338500976562 C 453.4484252929688 289.0054931640625 451.2835388183594 315.9996032714844 446.7815551757812 334.6173706054688 C 441.1525573730469 359.9099731445312 425.4341430664062 383.7810974121094 404.9380187988281 397.5982055664062 L 403.3648376464844 398.6586608886719 L 401.7158508300781 399.5969543457031 C 391.25830078125 405.5470886230469 380.2633056640625 408.5640258789062 369.0361938476562 408.5640258789062 Z" stroke="none" fill="#fff"/>
    </g>
    <g id="Path_8" data-name="Path 8" transform="translate(-111.591 -62.518)" fill="#fff" stroke-linecap="round">
      <path d="M 649.6632690429688 421.5624694824219 L 649.3850708007812 421.5624694824219 L 648.2898559570312 421.5466003417969 C 648.1892700195312 421.5467529296875 648.0828247070312 421.5469055175781 647.9712524414062 421.5469055175781 C 643.3339233398438 421.5469055175781 629.3909301757812 421.29443359375 619.455322265625 410.5443115234375 C 612.8545532226562 403.4024047851562 609.97509765625 393.8563842773438 610.8969116210938 382.1714172363281 C 612.3724365234375 363.4456176757812 621.3914184570312 347.72509765625 636.9786376953125 336.7117309570312 C 643.8563842773438 331.8535766601562 651.84228515625 329.2868041992188 660.075927734375 329.2868041992188 C 663.2296142578125 329.2868041992188 666.4177856445312 329.6649475097656 669.5518798828125 330.4108276367188 C 679.2654418945312 332.7209167480469 687.4161376953125 338.8436584472656 691.910400390625 347.208251953125 C 696.3552856445312 355.4808959960938 696.9691772460938 365.0421447753906 693.638916015625 374.1306762695312 C 690.4583129882812 382.8103332519531 686.8654174804688 391.6786193847656 682.6546630859375 401.2426452636719 C 679.965087890625 407.3519897460938 671.3659057617188 421.5624694824219 649.6632690429688 421.5624694824219 Z" stroke="none"/>
      <path d="M 649.6634521484375 396.5624389648438 C 653.316650390625 396.5624389648438 657.6852416992188 395.9136657714844 659.7740478515625 391.1690368652344 C 663.489013671875 382.7311096191406 666.9934692382812 374.1847839355469 670.1651611328125 365.5293884277344 C 672.0437622070312 360.4023742675781 669.1393432617188 356.0099792480469 663.7640380859375 354.7315979003906 C 659.2879638671875 353.6663818359375 655.08056640625 354.5331420898438 651.405029296875 357.12939453125 C 642.092529296875 363.709228515625 636.7158203125 372.7621154785156 635.8194580078125 384.1374816894531 C 635.0814208984375 393.4929504394531 638.290283203125 396.5824584960938 648.84619140625 396.5527648925781 C 649.1137084960938 396.5587158203125 649.3864135742188 396.5624389648438 649.6634521484375 396.5624389648438 M 649.6634521484375 446.5624389648438 L 648.4194946289062 446.5513916015625 C 628.5347900390625 446.4464416503906 612.6759643554688 440.0423278808594 601.0957641601562 427.5128173828125 C 593.1712646484375 418.938720703125 584.115234375 403.7712707519531 585.974365234375 380.2052612304688 C 588.0226440429688 354.2118225097656 601.0130615234375 331.5128173828125 622.5524291992188 316.2940063476562 C 633.6751708984375 308.4374389648438 646.6486206054688 304.2867736816406 660.075927734375 304.2867736816406 C 665.1766967773438 304.2867736816406 670.3125 304.8935546875 675.3406982421875 306.0902709960938 C 691.9918212890625 310.0503234863281 706.0610961914062 320.72509765625 713.9328002929688 335.37548828125 C 721.690673828125 349.8140563964844 722.8497314453125 367.07470703125 717.11279296875 382.7317199707031 C 713.748046875 391.9138793945312 709.961181640625 401.2635498046875 705.5353393554688 411.3162231445312 C 695.8192749023438 433.3859252929688 674.9324340820312 446.5624389648438 649.6634521484375 446.5624389648438 Z" stroke="none" fill="#fff"/>
    </g>
    <g id="Path_9" data-name="Path 9" transform="translate(-164.164 -62.63)" fill="#fff" stroke-linecap="round">
      <path d="M 820.73291015625 391.2502746582031 C 818.6770629882812 391.2502746582031 816.61572265625 391.2085266113281 814.5486450195312 391.1648254394531 L 812.6105346679688 391.1254577636719 L 776.80859375 390.4617004394531 L 789.7689208984375 357.0813293457031 C 796.23583984375 340.4251098632812 811.8245849609375 329.6626586914062 829.4830932617188 329.6626586914062 C 831.134765625 329.6626586914062 832.807373046875 329.7565002441406 834.4962768554688 329.9501647949219 C 850.0135498046875 331.7274780273438 861.760498046875 344.0450134277344 862.4248046875 359.2381591796875 C 862.9889526367188 372.159912109375 855.2362670898438 386.6849365234375 836.6445922851562 390.0097351074219 C 830.5007934570312 391.1091918945312 824.9136962890625 391.2502746582031 820.73291015625 391.2502746582031 Z" stroke="none"/>
      <path d="M 820.7330322265625 366.250244140625 C 824.5950317382812 366.250244140625 828.4343872070312 366.0818176269531 832.2435913085938 365.4001770019531 C 834.9228515625 364.9210205078125 837.602783203125 363.8606872558594 837.4486694335938 360.3302307128906 C 837.31640625 357.3055419921875 834.9777221679688 355.1687316894531 831.6483764648438 354.7874450683594 C 823.4561767578125 353.8482055664062 816.1260986328125 358.2687377929688 813.073974609375 366.1297607421875 C 815.636474609375 366.17724609375 818.1893920898438 366.250244140625 820.7330322265625 366.250244140625 M 820.7330932617188 416.2502746582031 C 818.5010375976562 416.2502746582031 816.2628784179688 416.2066955566406 814.0186157226562 416.1591796875 L 812.1467895507812 416.1211547851562 L 740.5430908203125 414.7931213378906 L 766.4639282226562 348.0326843261719 C 776.6932983398438 321.6863708496094 801.4297485351562 304.6626281738281 829.4830932617188 304.6626281738281 C 832.0728149414062 304.6626281738281 834.6953735351562 304.8092346191406 837.3433837890625 305.11279296875 C 865.141845703125 308.2966003417969 886.1964111328125 330.6005249023438 887.4009399414062 358.1459045410156 C 888.6297607421875 386.2973327636719 869.5678100585938 409.5184326171875 841.0458984375 414.6192626953125 C 832.8772583007812 416.0811157226562 825.54052734375 416.2502746582031 820.7330932617188 416.2502746582031 Z" stroke="none" fill="#fff"/>
    </g>
    <g id="Path_10" data-name="Path 10" transform="translate(-31.81 -46.435)" fill="#fff" stroke-linecap="round">
      <path d="M 373.3805847167969 378.177490234375 C 368.222412109375 378.177490234375 355.3878173828125 376.576904296875 347.633544921875 361.7513122558594 C 343.26953125 353.4019470214844 341.2984619140625 344.1500244140625 341.6044616699219 333.4605407714844 C 341.7097778320312 304.7334594726562 356.9257202148438 275.0275268554688 385.7842407226562 275.0275268554688 L 386.6593017578125 275.0275268554688 L 388.5165100097656 275.1235046386719 C 404.5699462890625 275.8475341796875 416.2060852050781 286.0326843261719 419.0332336425781 302.33349609375 C 420.6281127929688 311.5238647460938 420.0718688964844 321.4052124023438 417.3795776367188 331.7005920410156 C 412.8144226074219 348.5396118164062 404.0216369628906 362.3009033203125 391.893798828125 371.714599609375 L 391.0822143554688 372.3445434570312 L 390.2217102050781 372.90576171875 C 384.8582458496094 376.4038391113281 379.1921081542969 378.177490234375 373.3805847167969 378.177490234375 Z" stroke="none"/>
      <path d="M 373.3805847167969 353.177490234375 C 374.2938232421875 353.177490234375 375.3331298828125 352.7689208984375 376.5646057128906 351.9657592773438 C 385.0813903808594 345.35498046875 390.4236145019531 335.5879821777344 393.1929016113281 325.3755187988281 C 394.7836608886719 319.29248046875 395.4999389648438 312.9384765625 394.4009399414062 306.6055908203125 C 393.58056640625 301.8753967285156 391.5239868164062 300.2790222167969 386.7685546875 300.0622863769531 C 371.600341796875 298.9999389648438 366.6399230957031 322.5478515625 366.59423828125 334.1758422851562 C 366.4345703125 339.7545166015625 367.1662292480469 345.1516418457031 369.786376953125 350.1646423339844 C 370.8460388183594 352.1905822753906 371.9610595703125 353.177490234375 373.3805847167969 353.177490234375 M 373.3805541992188 403.1774597167969 C 353.1595458984375 403.1774597167969 335.2529907226562 392.0223693847656 325.4804382324219 373.3375854492188 C 319.2612915039062 361.4387817382812 316.2761840820312 348.0049743652344 316.5983581542969 333.3890686035156 C 317.0205383300781 285.0474548339844 346.0451354980469 250.0274658203125 385.7842712402344 250.0274658203125 L 387.5324401855469 250.0274658203125 L 389.0448608398438 250.1144714355469 L 389.0448913574219 250.1141357421875 C 417.3980712890625 251.4062957763672 438.837890625 270.2266235351562 443.6654968261719 298.0612487792969 C 445.8757934570312 310.7980346679688 445.1697692871094 324.2456359863281 441.566162109375 338.0255737304688 C 435.5104370117188 360.365478515625 423.6748962402344 378.6932983398438 407.2229614257812 391.4634094238281 L 405.599609375 392.7234802246094 L 403.8783264160156 393.8460083007812 C 394.3843383789062 400.0379028320312 384.1233825683594 403.1774597167969 373.3805541992188 403.1774597167969 Z" stroke="none" fill="#fff"/>
    </g>
    <g id="Path_11" data-name="Path 11" transform="translate(-115.523 -66.487)" fill="#fff" stroke-linecap="round">
      <path d="M 651.6925048828125 416.5830078125 C 647.7744750976562 416.5830078125 643.9733276367188 415.912109375 640.3945922851562 414.5888671875 L 625.7332763671875 409.1677856445312 L 624.1873168945312 393.6129150390625 C 622.89599609375 380.620361328125 627.905517578125 366.13134765625 637.2608032226562 355.8001708984375 C 644.9256591796875 347.3357849121094 654.6847534179688 342.6742858886719 664.7404174804688 342.6742858886719 L 665.6286010742188 342.6742858886719 L 667.0267333984375 342.7554016113281 L 701.3695678710938 345.1986694335938 L 688.4156494140625 377.0984497070312 L 684.4928588867188 386.7591857910156 L 678.9290771484375 400.4607238769531 L 673.785400390625 413.1260986328125 L 660.3468017578125 415.6306762695312 C 658.1897583007812 416.0338439941406 655.2516479492188 416.5830078125 651.6925048828125 416.5830078125 Z" stroke="none"/>
      <path d="M 664.7403564453125 367.6742858886719 C 656.7371826171875 367.6742858886719 648.0336303710938 380.7650146484375 649.0647583007812 391.1404418945312 C 651.228271484375 391.9403686523438 653.3917846679688 391.4964599609375 655.766357421875 391.0538940429688 C 658.904296875 383.3272094726562 662.0584106445312 375.5583190917969 665.2526245117188 367.6923828125 C 665.0822143554688 367.6802673339844 664.9114990234375 367.6742858886719 664.7403564453125 367.6742858886719 M 664.7404174804688 317.6742858886719 L 666.5145263671875 317.6742858886719 L 668.7963256835938 317.818115234375 L 737.4888916015625 322.698974609375 L 691.8045654296875 435.1981201171875 L 664.9275512695312 440.2074890136719 C 662.22607421875 440.7123718261719 657.5684204101562 441.5830078125 651.6925659179688 441.5830078125 C 644.8058471679688 441.5830078125 638.0875854492188 440.3900756835938 631.7244873046875 438.0372619628906 L 602.4017333984375 427.1951293945312 L 599.3098754882812 396.0853271484375 C 597.3123779296875 375.9867553710938 604.5721435546875 354.6536560058594 618.7296752929688 339.0193176269531 C 631.194091796875 325.2547607421875 647.5343627929688 317.6742858886719 664.7404174804688 317.6742858886719 Z" stroke="none" fill="#fff"/>
    </g>
  </g>
  <g id="Group_2" data-name="Group 2" transform="translate(-173.261 -57.379)" opacity="0.3">
    <path id="Path_1-2" data-name="Path 1" d="M697.028,325.088c23.345,2.529,22.9,33.855,2.264,40.934a42.077,42.077,0,0,1-13.789,2.321c-11.489-.132-22.984.139-34.47-.087-15.764-.309-28.593-4.717-37.95-16.716-3.375,9.3-10.287,14.328-19.69,15.856a106.009,106.009,0,0,1-29.735.192,18.086,18.086,0,0,1-8.267-3.132c-14.076,5.558-28.287,5.021-42.518,1.906-7.221-1.581-12.061-5.53-18.686-13.808-8.624,20.164-31.321,14.976-48.846,15.778-23.039.762-36.442-15.668-38.025-36.653-5.092,4.965-9.7,10.024-14.992,14.377-37.9,33.116-103.616,30.517-124.1-20.423-8.571-19.217-10.546-39.48-7.824-60.2,4.459-41.52,24.817-83.034,63.186-102.775.726-10.406,4.715-16.42,12.236-18.565,7.763-2.213,14.5.683,20.224,8.878a93.2,93.2,0,0,1,40.911,3.687c2.853-5.6,6.78-9.836,13.289-10.785a16.786,16.786,0,0,1,12.959,3.061c6.352,4.7,10.539,15.642,1.4,25.984,20.407,22.722,22.06,55.943,16.428,84.533,1.489,1.087,2.937.8,4.312.8,8.442.023,16.886-.082,25.326.045,5.553.083,11.005.988,15.728,4.183,6.513,4.406,8.772,10.962,7.771,18.36-1.788,15.279-11.1,19.16-25.046,21.661-5.325,5.757-11.39,11.177-14.394,19.621,10.957,1.368,21.977-1.48,32.4,3.869.042-27.609,14.582-53.437,39.832-65.116a43.259,43.259,0,0,1,37.142-.4,6.361,6.361,0,0,0,1.229.229q10.813-26.519,21.583-53.011a40.411,40.411,0,0,1,9.642-14.527c15.625-15.306,43.056-3.135,37.813,18.631-2.424,10.086-7.169,19.3-10.98,28.856-10.836,27.325-22.1,54.418-32.96,81.74a42.24,42.24,0,0,1,14.8,3.239c-1.163-34.071,21.126-69.965,64.583-68.892,18.27.481,35.97,11.869,38.973,31.106,1.512-.269,1.418-1.571,1.769-2.424,3.7-8.992,7.15-18.09,11.031-27,3.23-7.414,7.92-13.378,16.49-15.436,10.974-2.617,22.111,2.885,24.723,14.757,1.293.758,2.726.5,4.1.5,8.442.022,16.889-.179,25.324.07,7.128.21,14.165,1.375,19.051,7.342,9.319,11.383,3.526,30.176-10.566,34.469-3.236.986-6.595,1.576-10.281,2.438-5.242,5.592-11.275,11.031-14.086,18.9,1.516,1.549,3.236.993,4.794,1.065,7.343.338,14.7-.584,22.02,1.368,9.979,2.66,14.841,12.322,13.336,21.7-2.285,14.246-13.227,19.921-26.256,20.59a276.107,276.107,0,0,1-27.779.008c-22.341-.867-34.66-20.746-33.544-40.7-12.325-.464-16.087-2.481-23.342-12.536C703.143,318.452,700.8,321.91,697.028,325.088Z" transform="translate(0)" fill="#002e53"/>
    <path id="Path_2-2" data-name="Path 2" d="M400.227,173.431c4.331,10.2,8.829,13.208,19.847,13.1,17.969,19.348,20.252,42.967,17.641,68.244-14.848-6.967-27.835-1.314-33.936,13.656-4.6,11.4-9.278,22.777-13.769,34.223-1.7,4.34-3.4,8.8-2.872,13.6,1.043,9.429,6.471,15.2,15.961,17.988-2.406,2.47-4.506,4.751-6.736,6.9-35.326,36.6-102,35.822-118.824-18.6-11.128-33.159-3.723-75.064,13.483-104.976C311.937,179.635,358.428,158.205,400.227,173.431Z" transform="translate(-3.854 -7.443)" fill="#fefefe"/>
    <path id="Path_3-2" data-name="Path 3" d="M668.927,300.339c7.474-18.35,14.716-36.236,22.051-54.084,2.353-5.724,4.2-11.7,7.645-16.922,3.756-5.687,8.607-9.5,15.9-9.192a11.5,11.5,0,0,1,11.2,13.568c-1.019,6.332-4.183,11.9-6.531,17.739-13.989,35.053-28.41,69.819-42.293,104.925,6.018.063,11.422-.185,17.259.2,4.659.461,8.767,1.933,10.352,6.97a13.725,13.725,0,0,1-4.527,14.242,20.08,20.08,0,0,1-12.458,4.1c-5.51.066-11.031-.187-16.531.07-6.31.294-11.582-1.3-15.282-7.333-6.037,6.78-13.685,7.864-21.931,7.322-4.787-.315-9.682.323-14.389-.389-12.154-1.837-21.205-11.6-22.654-24.454-2.924-25.933,7.421-45.925,28.5-60.446C638.248,287.556,657.909,287.7,668.927,300.339Z" transform="translate(-99.89 -22.749)" fill="#fefefe"/>
    <path id="Path_4-2" data-name="Path 4" d="M792.615,377.152c.012,9.079,9.314,8.508,16.2,8.724,10.433.058,20.866.019,31.3.03,5.8.032,12.514.55,14.509,7.189,2.923,10.674-6.492,18.424-16.57,18.3-13.481.073-26.974.386-40.439-.063-17.841-.593-31.044-9.805-33.515-29.66-4.95-36.319,31.309-72.8,67.5-58.936,27.491,9.765,23.9,52.5-7.879,54.062C813.329,377.365,803.057,377.059,792.615,377.152Z" transform="translate(-149.512 -52.275)" fill="#fefefe"/>
    <path id="Path_5-2" data-name="Path 5" d="M978.541,341.512c-7.454,7.334-15.615,14.916-19.236,25.061-2.253,7.49,1.145,12.4,8.883,13.126,5.268.493,10.538.122,15.8.267,5.77.06,12.537.5,14.672,7.01,1.62,4.81-.32,11.045-4.362,14.292a19.1,19.1,0,0,1-12.048,4.188c-9.61.1-19.225.186-28.833-.007-12.545-.252-22.992-11.613-23.962-25.456a38.257,38.257,0,0,1,6.967-24.844c3.139-4.628,6.769-8.871,10.58-13.5H935.533c-2.747,6.128-4.616,13.3-9.132,18.557a12.407,12.407,0,0,1-15.908,2.781c-4.967-2.842-6.985-7.856-4.665-13.948q7.676-20.155,16.081-40.029c2.408-5.673,6.526-9.695,13.5-9.282,5.024.3,8.183,2.4,9.524,7.281,2.688,9.78,1.9,8.3,11.711,8.58,8.667.25,17.346.034,26.019.07a33.141,33.141,0,0,1,4.889.374c6.621,1.022,9.674,3.689,10.485,9.04a13.46,13.46,0,0,1-7.354,14.294C986.9,341.19,982.841,341.587,978.541,341.512Z" transform="translate(-191.374 -46.338)" fill="#fefefe"/>
    <path id="Path_6-2" data-name="Path 6" d="M521.937,341.484c-7.531,7.234-16.733,15.879-19.68,26.288-1.54,6.69,1.907,11.292,8.661,11.917,5.616.519,11.238.154,16.855.287,5.482.074,12.308.637,14.057,6.836,1.5,5.251.452,10.283-3.855,14.114a18.315,18.315,0,0,1-12.264,4.52c-9.727.123-19.459.2-29.183,0-23.407-1.587-30.083-30.834-17.865-48.641a127.683,127.683,0,0,1,11.625-15.066H478.766c-2.82,6.2-4.6,13.386-9.239,18.637a12.342,12.342,0,0,1-15.641,2.681c-5.038-2.845-6.992-7.767-4.811-13.885,4.869-13.656,10.425-27.052,16.222-40.335,2.358-5.406,6.242-9.318,12.9-9.1,5.54.183,8.661,2.444,10.254,7.786,2.308,7.738,2.3,7.888,10.254,8.048,9.138.184,18.282.053,27.424.1a30.7,30.7,0,0,1,4.538.344c6.647,1.03,9.927,3.8,10.657,8.9C542.8,336.953,532.531,342.123,521.937,341.484Z" transform="translate(-56.003 -46.347)" fill="#fefefe"/>
    <path id="Path_7-2" data-name="Path 7" d="M353.6,328.939c.525-9.129,2.513-19.522,7.891-28.985,5.548-9.762,14.469-14.017,24.943-12.317,16.359,2.593,14.692,23.07,11.752,35.229-2.762,12.393-10.542,26.094-21.193,33.273C359.59,366.039,353.054,343.359,353.6,328.939Z" transform="translate(-27.954 -42.653)" fill="#002e53"/>
    <path id="Path_8-2" data-name="Path 8" d="M648.846,396.553c-10.559.023-13.765-3.06-13.027-12.415.9-11.375,6.273-20.428,15.586-27.008a14.8,14.8,0,0,1,12.359-2.4c5.375,1.278,8.28,5.671,6.4,10.8-3.172,8.655-6.676,17.2-10.391,25.64C657.527,396.273,652.641,396.637,648.846,396.553Z" transform="translate(-111.591 -62.518)" fill="#002e53"/>
    <path id="Path_9-2" data-name="Path 9" d="M813.074,366.13a17.405,17.405,0,0,1,18.574-11.342c3.329.381,5.668,2.518,5.8,5.543.154,3.531-2.526,4.591-5.205,5.07C825.926,366.531,819.527,366.249,813.074,366.13Z" transform="translate(-164.164 -62.63)" fill="#002e53"/>
    <path id="Path_10-2" data-name="Path 10" d="M366.594,334.176c.046-11.628,5.007-35.177,20.174-34.114,4.755.217,6.812,1.813,7.632,6.543a44.177,44.177,0,0,1-1.208,18.77c-2.769,10.212-8.112,19.979-16.628,26.59-3.146,2.052-5.037,1.528-6.778-1.8C367.166,345.152,366.435,339.755,366.594,334.176Z" transform="translate(-31.81 -46.435)" fill="#fefefe"/>
    <path id="Path_11-2" data-name="Path 11" d="M665.253,367.692c-3.194,7.866-6.348,15.635-9.486,23.362-2.375.443-4.538.887-6.7.087C648.012,380.543,657.114,367.113,665.253,367.692Z" transform="translate(-115.523 -66.487)" fill="#fdfdfe"/>
  </g>
</svg>
